<svg xmlns="http://www.w3.org/2000/svg" width="300" height="200" viewBox="0 0 300 200"><rect width="100%" height="100%" fill="#DDDDDD"/><path fill="#999999" d="M64.1 99.745h1.84q.84 0 1.46-.21t1.02-.57q.4-.37.6-.88.2-.5.2-1.11 0-1.21-.8-1.86-.79-.65-2.43-.65H64.1zm5.47 2.47 3.99 5.87h-2.68q-.76 0-1.1-.59l-3.34-5.1q-.19-.28-.41-.4-.23-.12-.67-.12H64.1v6.21h-2.96v-15.91h4.85q1.61 0 2.77.34 1.17.34 1.91.94.74.61 1.09 1.45t.35 1.85q0 .8-.23 1.52-.24.71-.68 1.3-.45.58-1.1 1.02-.66.44-1.49.69.28.17.52.39.25.23.44.54m7.43-1.07h5.12q0-.53-.14-1-.15-.46-.45-.82-.3-.35-.75-.55-.46-.2-1.07-.2-1.17 0-1.85.67-.67.67-.86 1.9m6.93 1.64h-6.99q.07.87.31 1.5t.64 1.04q.4.42.94.62t1.2.2 1.14-.15.84-.34.63-.34q.27-.16.52-.16.34 0 .5.26l.79.99q-.46.52-1.02.88t-1.17.57q-.61.22-1.24.31-.63.08-1.23.08-1.17 0-2.19-.39-1.01-.39-1.76-1.15-.74-.77-1.17-1.89-.43-1.13-.43-2.61 0-1.16.37-2.18.38-1.01 1.07-1.77.7-.75 1.71-1.19t2.27-.44q1.07 0 1.97.34t1.55.99q.65.66 1.02 1.61t.37 2.17q0 .62-.14.83-.13.22-.5.22m10.17-4.76-.61.97q-.11.18-.23.25t-.31.07q-.2 0-.43-.11-.22-.11-.52-.24-.29-.14-.67-.25t-.9-.11q-.8 0-1.26.34t-.46.89q0 .36.24.61t.63.44q.39.18.88.33.5.15 1.01.33.51.17 1.01.4.49.22.88.57t.63.83q.23.48.23 1.17 0 .81-.29 1.5-.29.68-.86 1.18-.57.51-1.41.79-.85.28-1.95.28-.58 0-1.13-.11-.56-.1-1.07-.29t-.95-.44q-.43-.25-.76-.55l.63-1.03q.12-.19.28-.29.17-.1.42-.1t.48.14q.22.15.52.31.3.17.7.31t1.02.14q.48 0 .83-.11.34-.12.57-.31.22-.18.33-.43.1-.25.1-.51 0-.4-.23-.65-.24-.25-.63-.44t-.89-.34q-.5-.14-1.02-.32-.53-.18-1.03-.41-.5-.24-.89-.6t-.63-.89q-.23-.53-.23-1.28 0-.69.27-1.32.28-.63.81-1.09.54-.47 1.33-.75.8-.28 1.85-.28 1.16 0 2.12.38.96.39 1.59 1.02m2.26-1.23h2.73v11.29h-2.73zm3.1-3.28q0 .35-.14.66-.15.3-.38.53-.24.24-.56.37-.32.14-.68.14-.35 0-.67-.14-.31-.13-.54-.37-.23-.23-.37-.53-.14-.31-.14-.66 0-.37.14-.69t.37-.55.54-.37q.32-.13.67-.13.36 0 .68.13.32.14.56.37.23.23.38.55.14.32.14.69m5.12 14.57h-2.72v-11.29h1.66q.53 0 .69.5l.18.83q.3-.33.62-.6t.69-.47.79-.32q.43-.11.93-.11 1.07 0 1.76.58.69.57 1.03 1.53.26-.56.66-.96.39-.4.87-.66.47-.25 1-.37.54-.12 1.08-.12.93 0 1.66.28.72.29 1.22.84.49.55.75 1.34t.26 1.82v7.18h-2.72v-7.18q0-1.08-.47-1.63-.47-.54-1.39-.54-.41 0-.77.14-.36.15-.63.42-.27.26-.42.67-.16.41-.16.94v7.18h-2.72v-7.18q0-1.14-.46-1.65-.46-.52-1.34-.52-.59 0-1.1.29t-.95.8zm24.44-2.31h2.99q.82 0 1.39-.2.56-.2.89-.53.34-.33.49-.77.14-.44.14-.93 0-.52-.16-.93-.17-.41-.52-.7-.35-.3-.91-.45-.55-.15-1.33-.15h-2.98zm2.52-11.31h-2.52v4.6h2.35q1.52 0 2.29-.55.78-.55.78-1.75 0-1.24-.7-1.77-.71-.53-2.2-.53m-5.48-2.29h5.48q1.56 0 2.67.3t1.82.85 1.04 1.33.33 1.76q0 .56-.17 1.07-.16.51-.51.96-.34.44-.88.81-.53.36-1.27.61 3.28.74 3.28 3.55 0 1.01-.38 1.87-.39.85-1.13 1.47-.73.63-1.81.98t-2.47.35h-6zm21.06 4.62h2.72v11.29h-1.66q-.54 0-.68-.49l-.19-.91q-.69.71-1.53 1.14-.83.44-1.97.44-.92 0-1.63-.32-.71-.31-1.19-.88-.49-.57-.74-1.36-.24-.79-.24-1.73v-7.18h2.71v7.18q0 1.03.48 1.6.48.56 1.44.56.7 0 1.32-.31.61-.31 1.16-.86zm5.44-5.06h2.71v16.35h-2.71zm12.44 5.06h2.72v11.29h-1.67q-.53 0-.68-.49l-.18-.91q-.7.71-1.53 1.14-.84.44-1.97.44-.93 0-1.64-.32-.71-.31-1.19-.88t-.73-1.36-.25-1.73v-7.18h2.72v7.18q0 1.03.48 1.6.48.56 1.43.56.71 0 1.32-.31.62-.31 1.17-.86zm7.75.5.19.89q.34-.34.72-.63t.8-.5q.43-.2.91-.32.49-.11 1.06-.11.92 0 1.64.31.71.32 1.19.88.48.57.73 1.35.24.79.24 1.74v7.18h-2.71v-7.18q0-1.04-.48-1.6-.47-.57-1.44-.57-.7 0-1.32.32-.61.32-1.16.87v8.16h-2.72v-11.29h1.66q.53 0 .69.5m16.02 7.87v-1.9q-1.18.06-1.98.21-.8.14-1.29.38-.48.23-.69.53-.21.31-.21.68 0 .71.42 1.02.43.31 1.11.31.84 0 1.45-.31.61-.3 1.19-.92m-5.74-5.92-.49-.87q1.95-1.78 4.69-1.78.99 0 1.77.32t1.32.9.82 1.38q.28.81.28 1.76v7.13h-1.23q-.39 0-.6-.12-.2-.11-.33-.46l-.24-.82q-.43.39-.83.68-.41.29-.85.49t-.94.3q-.5.11-1.11.11-.71 0-1.32-.2-.6-.19-1.04-.57-.44-.39-.68-.96-.25-.57-.25-1.33 0-.43.15-.85.14-.43.46-.81.33-.39.85-.73.51-.34 1.27-.59.75-.26 1.75-.42 1-.15 2.29-.19v-.66q0-1.13-.48-1.68-.49-.54-1.4-.54-.66 0-1.1.15-.43.16-.76.35t-.6.35q-.27.15-.6.15-.29 0-.48-.15-.2-.15-.32-.34m13.66 8.84h-2.72v-11.29h1.66q.53 0 .7.5l.17.83q.3-.33.62-.6.33-.27.7-.47.36-.2.79-.32.42-.11.93-.11 1.07 0 1.75.58.69.57 1.03 1.53.26-.56.66-.96t.87-.66q.47-.25 1.01-.37.53-.12 1.07-.12.93 0 1.66.28.73.29 1.22.84.5.55.75 1.34.26.79.26 1.82v7.18h-2.71v-7.18q0-1.08-.48-1.63-.47-.54-1.38-.54-.42 0-.78.14-.36.15-.63.42-.27.26-.42.67t-.15.94v7.18h-2.73v-7.18q0-1.14-.46-1.65-.45-.52-1.33-.52-.6 0-1.11.29t-.95.8zm21.67-2.92v-1.9q-1.18.06-1.98.21-.8.14-1.29.38-.48.23-.69.53-.21.31-.21.68 0 .71.42 1.02.43.31 1.11.31.84 0 1.45-.31.61-.3 1.19-.92m-5.74-5.92-.49-.87q1.95-1.78 4.69-1.78.99 0 1.77.32t1.32.9.82 1.38q.28.81.28 1.76v7.13h-1.23q-.39 0-.6-.12-.21-.11-.33-.46l-.24-.82q-.43.39-.83.68-.41.29-.85.49t-.94.3q-.5.11-1.11.11-.71 0-1.32-.2-.6-.19-1.04-.57-.44-.39-.68-.96-.25-.57-.25-1.33 0-.43.15-.85.14-.43.46-.81.33-.39.85-.73.51-.34 1.27-.59.75-.26 1.75-.42 1-.15 2.29-.19v-.66q0-1.13-.49-1.68-.48-.54-1.39-.54-.66 0-1.1.15-.43.16-.76.35t-.6.35q-.27.15-.6.15-.29 0-.48-.15-.2-.15-.32-.34m18.03 5.5v-5.06q-.47-.56-1.01-.8-.55-.23-1.17-.23t-1.11.23q-.5.24-.85.7-.35.47-.54 1.19t-.19 1.7q0 .99.16 1.68t.46 1.12.73.63q.42.19.95.19.85 0 1.44-.35.6-.35 1.13-1m0-13.01h2.71v16.35h-1.66q-.54 0-.68-.49l-.23-1.09q-.68.78-1.57 1.26-.88.48-2.06.48-.93 0-1.69-.38-.78-.38-1.33-1.12-.56-.73-.86-1.81-.3-1.07-.3-2.46 0-1.25.34-2.33t.98-1.87 1.53-1.24q.89-.44 2-.44.95 0 1.62.29.67.3 1.2.81zm5.5 5.06h2.71v11.29h-2.71z"/></svg>